# xmcd
# Track frame offsets:
# 150
# 15087
# 29757
# 49010
# 63255
# 81902
# 94640
# 114477
# 128887
# 141460
# 161257
# 179412
# 192640
#
# Disc length: 3057 seconds
# Revision: 0
# Processed by: cddbd v1.5.2PL0 Copyright (c) Steve Scherf et al.
# Submitted via: VisiTrax 2.10.0.248 - For more info visit www.synapsa.com
#
DISCID=ad0bef0d
DTITLE=Barbara Blue - Love Money Can't Buy
DYEAR=2006
DGENRE=Blues
TTITLE0=Broken Hearts Row
TTITLE1=On A Saturday Night
TTITLE2=The Love Money Can't Buy
TTITLE3=Man Size Job
TTITLE4=Wild Stage of Life
TTITLE5=Low Down Dirty Dawg
TTITLE6=Standin' In My Doorway Cryin'
TTITLE7=I Play Dirty
TTITLE8=What Makes You So Tough?
TTITLE9=Daddy's Love
TTITLE10=Bag O' Bones
TTITLE11=Moonlight Over Memphis
TTITLE12=That's Where My Brother Sleeps
EXTD=
EXTT0=
EXTT1=
EXTT2=
EXTT3=
EXTT4=
EXTT5=
EXTT6=
EXTT7=
EXTT8=
EXTT9=
EXTT10=
EXTT11=
EXTT12=
PLAYORDER=
